<?xml version="1.0" standalone="no"?>
<!DOCTYPE svg PUBLIC "-//W3C//DTD SVG 20010904//EN"
 "http://www.w3.org/TR/2001/REC-SVG-20010904/DTD/svg10.dtd">
<svg version="1.0" xmlns="http://www.w3.org/2000/svg"
 width="512.000000pt" height="512.000000pt" viewBox="0 0 512.000000 512.000000"
 preserveAspectRatio="xMidYMid meet">

<g transform="translate(0.000000,512.000000) scale(0.100000,-0.100000)"
fill="#000000" stroke="none">
<path d="M1375 4786 c-73 -33 -95 -83 -95 -212 l0 -94 -188 0 c-204 0 -261 -9
-354 -56 -116 -59 -221 -197 -247 -326 -8 -37 -10 -590 -9 -1865 l3 -1812 21
-27 c11 -15 33 -37 48 -48 l27 -21 1979 0 1979 0 27 21 c15 11 37 33 48 48
l21 27 3 1807 c1 1189 -1 1825 -8 1861 -24 131 -123 268 -239 330 -97 51 -154
61 -362 61 l-187 0 -4 109 c-3 118 -12 141 -72 185 -39 29 -133 29 -172 0 -60
-44 -69 -67 -72 -185 l-4 -109 -398 0 -398 0 -4 109 c-3 118 -12 141 -72 185
-39 29 -133 29 -172 0 -60 -44 -69 -67 -72 -185 l-4 -109 -398 0 -398 0 -4
109 c-3 118 -12 141 -70 184 -34 25 -113 32 -153 13z m-93 -735 c3 -118 12
-141 72 -185 39 -29 133 -29 172 0 60 44 69 67 72 185 l4 109 398 0 398 0 4
-109 c3 -118 12 -141 72 -185 39 -29 133 -29 172 0 60 44 69 67 72 185 l4 109
398 0 398 0 4 -109 c3 -118 12 -141 72 -185 39 -29 133 -29 172 0 60 44 69 67
72 185 l4 109 174 0 c198 0 225 -6 270 -66 l29 -37 3 -189 3 -188 -1760 0
-1761 0 0 174 c0 181 6 214 43 255 41 44 70 50 259 51 l176 0 4 -109z m3038
-2051 l0 -1360 -1760 0 -1760 0 0 1360 0 1360 1760 0 1760 0 0 -1360z"/>
<path d="M1695 3106 c-41 -18 -83 -69 -90 -109 -4 -18 -5 -186 -3 -372 4 -336
4 -341 29 -406 37 -96 73 -153 136 -215 55 -54 154 -117 204 -129 25 -6 26 -9
32 -103 15 -260 154 -472 382 -582 356 -172 787 -2 926 366 20 52 39 86 50 89
31 10 97 83 126 137 23 45 27 65 27 138 1 100 -23 159 -89 225 -65 66 -125 90
-225 90 -100 0 -160 -24 -225 -90 -66 -66 -90 -125 -89 -225 0 -72 4 -93 27
-137 15 -29 43 -68 62 -88 l35 -35 -19 -37 c-29 -56 -98 -118 -166 -150 -51
-24 -73 -28 -145 -28 -72 0 -94 4 -145 28 -128 60 -205 175 -213 320 -4 64 -2
77 10 77 9 0 47 16 87 36 126 63 226 184 277 334 17 50 19 89 19 417 0 350 -1
362 -21 389 -45 61 -66 69 -192 72 -137 4 -179 -6 -221 -53 -77 -88 -36 -228
75 -257 l44 -12 0 -214 c0 -255 -5 -278 -75 -347 -70 -71 -145 -91 -239 -63
-55 16 -138 99 -154 154 -8 27 -12 117 -12 256 l0 214 44 12 c141 37 154 242
19 298 -43 19 -247 18 -288 0z"/>
</g>
</svg>
