<?xml version="1.0" standalone="no"?>
<!DOCTYPE svg PUBLIC "-//W3C//DTD SVG 20010904//EN"
 "http://www.w3.org/TR/2001/REC-SVG-20010904/DTD/svg10.dtd">
<svg version="1.0" xmlns="http://www.w3.org/2000/svg"
 width="512.000000pt" height="512.000000pt" viewBox="0 0 512.000000 512.000000"
 preserveAspectRatio="xMidYMid meet">

<g transform="translate(0.000000,512.000000) scale(0.100000,-0.100000)"
fill="#000000" stroke="none">
<path d="M1455 5095 l-25 -24 0 -221 0 -220 -220 0 -221 0 -24 -25 -25 -24 0
-221 0 -220 -220 0 -221 0 -24 -25 -25 -24 0 -2021 0 -2021 25 -24 24 -25
1571 0 1571 0 24 25 25 24 0 221 0 220 220 0 221 0 24 25 25 24 0 221 0 220
220 0 221 0 24 25 25 24 0 2021 0 2021 -25 24 -24 25 -1571 0 -1571 0 -24 -25z
m3055 -2045 l0 -1910 -1460 0 -1460 0 0 1910 0 1910 1460 0 1460 0 0 -1910z
m-3080 -300 l0 -1721 25 -24 24 -25 1271 0 1270 0 0 -165 0 -165 -1460 0
-1460 0 0 1910 0 1910 165 0 165 0 0 -1720z m-490 -490 l0 -1721 25 -24 24
-25 1271 0 1270 0 0 -165 0 -165 -1460 0 -1460 0 0 1910 0 1910 165 0 165 0 0
-1720z"/>
<path d="M2186 4785 c-97 -27 -178 -75 -257 -154 -118 -117 -172 -244 -173
-401 -1 -165 55 -301 169 -415 181 -181 441 -224 670 -111 217 107 349 354
316 591 -20 139 -67 234 -170 336 -83 83 -179 137 -279 158 -71 15 -215 12
-276 -4z m64 -343 l0 -187 -130 -113 c-71 -62 -136 -115 -144 -118 -17 -7 -40
50 -56 136 -31 173 69 363 232 440 104 49 98 59 98 -158z m268 158 c104 -49
191 -156 227 -278 l7 -22 -169 2 -168 3 -3 163 -2 162 22 0 c13 0 51 -13 86
-30z m218 -505 c-59 -193 -268 -321 -468 -287 -70 12 -191 67 -186 84 2 4 65
62 141 128 l139 120 193 0 194 0 -13 -45z"/>
<path d="M3050 4490 c-21 -21 -26 -69 -10 -100 5 -10 24 -23 41 -29 45 -16
1014 -15 1059 0 58 21 71 111 20 139 -12 6 -224 10 -554 10 -523 0 -536 0
-556 -20z"/>
<path d="M3056 4069 c-37 -29 -37 -89 0 -118 26 -21 36 -21 555 -21 l528 0 27
23 c20 17 27 33 27 57 0 24 -7 40 -27 57 l-27 23 -528 0 c-519 0 -529 0 -555
-21z"/>
<path d="M3695 3685 c-24 -24 -31 -57 -19 -90 10 -25 58 -45 109 -45 26 0 45
-4 43 -9 -1 -5 -103 -96 -226 -201 l-224 -192 -307 136 c-169 75 -316 136
-327 136 -11 0 -31 -8 -44 -17 -40 -27 -643 -533 -662 -555 -41 -47 -2 -128
62 -128 32 0 18 -11 467 367 100 84 188 153 195 153 7 0 146 -59 308 -131 162
-72 307 -131 322 -131 32 -1 7 -21 300 230 131 111 241 202 244 202 3 0 3 -22
-1 -49 -11 -84 31 -134 100 -117 14 4 31 16 40 29 18 27 47 330 35 361 -15 40
-38 49 -168 62 -192 20 -218 18 -247 -11z"/>
<path d="M3790 3110 c-20 -20 -20 -33 -20 -705 l0 -685 -180 0 -179 0 -3 456
-3 456 -28 24 c-36 31 -71 31 -102 -1 l-25 -24 0 -456 0 -455 -180 0 -180 0 0
569 c0 560 0 569 -21 595 -27 35 -86 36 -117 3 l-22 -23 0 -572 0 -572 -180 0
-180 0 0 346 0 346 -29 29 c-32 31 -50 35 -84 17 -46 -24 -46 -25 -47 -390 l0
-348 -124 0 c-108 0 -126 -2 -149 -20 -44 -35 -43 -93 2 -127 12 -10 266 -12
1112 -13 l1096 0 23 25 c33 35 31 81 -4 112 -25 21 -36 23 -132 23 l-104 0 0
658 c0 423 -4 670 -10 694 -6 21 -19 42 -30 48 -31 16 -78 12 -100 -10z"/>
</g>
</svg>
